<?xml version="1.0" encoding="utf-8"?>
<!-- Generator: Adobe Illustrator 25.2.3, SVG Export Plug-In . SVG Version: 6.00 Build 0)  -->
<svg version="1.1" id="Layer_1" xmlns="http://www.w3.org/2000/svg" xmlns:xlink="http://www.w3.org/1999/xlink" x="0px" y="0px"
	 viewBox="0 0 310.3 310.3" style="enable-background:new 0 0 310.3 310.3;" xml:space="preserve">
<style type="text/css">
	.st0{fill:url(#MARK_1_);}
</style>
<linearGradient id="MARK_1_" gradientUnits="userSpaceOnUse" x1="230.2327" y1="285.194" x2="80.069" y2="25.1029">
	<stop  offset="0" style="stop-color:#0049A7"/>
	<stop  offset="1" style="stop-color:#0085FD"/>
</linearGradient>
<path id="MARK" class="st0" d="M305.23,159.71c0-0.11,0-0.21,0-0.32c0.04-1.34,0.06-2.69,0.06-4.04c0-0.07,0-0.14,0-0.2
	c0-0.48-0.01-0.96-0.02-1.44c-0.01-0.82-0.01-1.65-0.03-2.47c-0.01-0.44-0.04-0.88-0.05-1.32c-0.03-0.87-0.06-1.74-0.1-2.6
	c-0.02-0.32-0.04-0.63-0.06-0.95c-0.06-0.99-0.12-1.98-0.19-2.97c-0.01-0.18-0.03-0.37-0.05-0.55c-0.09-1.12-0.19-2.24-0.31-3.36
	c-0.01-0.06-0.01-0.12-0.02-0.18C297.44,72.27,246.3,18.38,180.6,7.16c-0.05-0.01-0.1-0.02-0.15-0.03c-1.16-0.2-2.32-0.38-3.49-0.55
	c-0.22-0.03-0.44-0.06-0.66-0.09c-1-0.14-2.01-0.28-3.02-0.4c-0.35-0.04-0.71-0.08-1.07-0.12c-0.88-0.1-1.76-0.19-2.65-0.28
	c-0.46-0.04-0.93-0.08-1.39-0.12c-0.79-0.07-1.58-0.13-2.37-0.19c-0.54-0.04-1.09-0.07-1.63-0.1c-0.72-0.04-1.45-0.08-2.17-0.12
	c-0.6-0.03-1.21-0.05-1.81-0.07c-0.68-0.02-1.36-0.04-2.04-0.06c-0.63-0.01-1.27-0.02-1.91-0.02c-0.36,0-0.72-0.01-1.09-0.01
	c-0.31,0-0.62,0.01-0.92,0.01c-0.64,0-1.27,0.01-1.91,0.02c-0.68,0.01-1.36,0.03-2.03,0.05c-0.32,0.01-0.64,0.01-0.96,0.02
	c-0.34,0.01-0.67,0.04-1,0.05c-0.59,0.03-1.17,0.06-1.76,0.09c-0.66,0.04-1.33,0.08-1.99,0.13c-0.61,0.04-1.22,0.09-1.83,0.14
	c-0.6,0.05-1.2,0.1-1.8,0.16c-0.69,0.06-1.37,0.13-2.05,0.21c-0.48,0.05-0.96,0.11-1.44,0.17c-0.81,0.1-1.62,0.2-2.43,0.3
	c-0.32,0.04-0.63,0.09-0.94,0.13c-0.98,0.14-1.96,0.28-2.94,0.44c-0.09,0.01-0.18,0.03-0.27,0.04C65.08,17.67,13.65,71.11,6,137.87
	c-0.02,0.19-0.04,0.39-0.07,0.58c-0.1,0.92-0.19,1.84-0.28,2.76c-0.04,0.41-0.07,0.82-0.11,1.23c-0.06,0.75-0.12,1.5-0.17,2.25
	c-0.04,0.57-0.07,1.13-0.11,1.7c-0.04,0.63-0.07,1.27-0.1,1.91c-0.03,0.66-0.05,1.33-0.08,1.99c-0.02,0.58-0.04,1.16-0.05,1.74
	c-0.01,0.29-0.02,0.57-0.02,0.86c0,0.21,0.01,0.43,0,0.64C5.01,154.07,5,154.61,5,155.15c0,1.38,0.02,2.75,0.06,4.13
	c0.01,0.2,0.02,0.4,0.02,0.61c0.06,1.83,0.15,3.65,0.27,5.47c0.02,0.3,0.03,0.59,0.06,0.89c0.14,1.87,0.31,3.73,0.52,5.58
	c0.04,0.4,0.09,0.8,0.14,1.19c0.22,1.85,0.47,3.69,0.75,5.51c0.05,0.32,0.11,0.63,0.16,0.95c0.3,1.82,0.62,3.64,0.98,5.44
	c0.03,0.13,0.05,0.27,0.08,0.4c0.38,1.89,0.81,3.75,1.27,5.61c0.08,0.33,0.16,0.66,0.24,0.99c0.46,1.81,0.95,3.61,1.47,5.4
	c0.1,0.33,0.2,0.66,0.3,1c0.55,1.83,1.12,3.64,1.74,5.43c0.02,0.07,0.04,0.14,0.07,0.22l2.44,7.11l0.14-0.19
	c4.67,11.67,10.76,22.61,18.06,32.62l-0.01,0.01c0.14,0.19,0.29,0.38,0.43,0.58c0.57,0.77,1.15,1.54,1.73,2.31
	c0.26,0.34,0.51,0.67,0.77,1.01c1.7,2.18,3.47,4.32,5.29,6.4c0.18,0.21,0.37,0.42,0.55,0.62c0.76,0.86,1.53,1.71,2.3,2.55
	c0.19,0.21,0.39,0.42,0.58,0.63c0.86,0.92,1.72,1.82,2.6,2.72c0.08,0.08,0.16,0.16,0.24,0.24c24.27,24.6,56.96,40.86,93.41,44.11
	c0.05,0.01,0.11,0.01,0.16,0.01c1.29,0.11,2.59,0.21,3.9,0.29c0.25,0.02,0.5,0.03,0.75,0.05c1.14,0.07,2.29,0.12,3.44,0.15
	c0.32,0.01,0.64,0.03,0.97,0.04c1.4,0.04,2.81,0.06,4.22,0.06c0.01,0,0.03,0,0.04,0c0,0,0.01,0,0.01,0c1.8,0,3.59-0.04,5.38-0.11
	c0.45-0.02,0.9-0.03,1.35-0.05c1.69-0.07,3.38-0.17,5.05-0.3c0.5-0.04,1-0.09,1.5-0.13c1.21-0.11,2.42-0.23,3.63-0.36
	c0.68-0.08,1.36-0.15,2.04-0.23c1.39-0.18,2.78-0.37,4.16-0.58c0.94-0.14,1.87-0.3,2.8-0.46c0.58-0.1,1.16-0.21,1.74-0.32
	c1.97-0.36,3.92-0.77,5.87-1.21c0.16-0.04,0.32-0.07,0.49-0.11c9.53-2.2,18.8-5.33,27.7-9.36c0.04-0.02,0.07-0.03,0.11-0.05
	c3.13-1.42,6.21-2.94,9.25-4.58c0.64-0.34,1.27-0.7,1.9-1.05c1.07-0.6,2.14-1.21,3.2-1.84c0.95-0.56,1.89-1.13,2.83-1.71
	c0.51-0.32,1.03-0.63,1.54-0.96c1.37-0.87,2.73-1.77,4.07-2.69c0.34-0.24,0.69-0.48,1.03-0.71c1.46-1.01,2.9-2.04,4.32-3.11
	c0.03-0.02,0.05-0.04,0.08-0.06c0.08-0.06,0.16-0.12,0.24-0.18c1.38-1.04,2.74-2.11,4.08-3.19c0.18-0.14,0.35-0.28,0.53-0.43
	c1.46-1.19,2.89-2.41,4.3-3.65c0.02-0.02,0.04-0.04,0.07-0.06c18.98-16.74,33.7-38.2,42.31-62.55c0.09-0.24,0.17-0.48,0.25-0.72
	c0.58-1.68,1.14-3.37,1.67-5.07c0.02-0.06,0.04-0.11,0.06-0.17l0.8-2.59l-0.02-0.02C302.87,184.87,304.84,172.49,305.23,159.71
	L305.23,159.71z M160.12,189.5l22.01,19.69l12.54-103.68l95.78,94.05c-17.14,52.1-63.58,91.02-119.74,97.15
	c-0.87,0.09-1.75,0.18-2.62,0.26c-0.63,0.06-1.25,0.12-1.88,0.17c-1.54,0.12-3.09,0.21-4.64,0.28c-0.45,0.02-0.9,0.04-1.35,0.05
	c-1.68,0.06-3.37,0.1-5.06,0.1c0,0-0.01,0-0.01,0c-0.01,0-0.03,0-0.04,0c-1.35,0-2.69-0.02-4.04-0.06
	c-0.35-0.01-0.69-0.03-1.04-0.04c-1.05-0.04-2.11-0.08-3.16-0.14c-0.31-0.02-0.62-0.04-0.92-0.06c-1.16-0.08-2.33-0.16-3.49-0.27
	c-0.16-0.01-0.31-0.03-0.47-0.04c-19.76-1.84-38.75-7.79-55.83-17.24c-0.32-0.18-0.63-0.35-0.95-0.53c-0.7-0.4-1.4-0.8-2.1-1.21
	c-0.54-0.32-1.09-0.64-1.62-0.96c-0.24-0.14-0.47-0.29-0.7-0.43c-27.34-16.8-48.6-42.58-59.65-73.19L95.7,100.55l41.98,34.15
	l51.42-76.98l59.25,55.1l4.76-6.11l-65.92-60.28l-51.29,76.8l-41.68-33.9L18.17,194.12c-0.64-2.25-1.23-4.52-1.76-6.81
	c-0.01-0.02-0.01-0.05-0.02-0.07c-0.25-1.1-0.49-2.2-0.72-3.31c-0.03-0.14-0.05-0.28-0.08-0.41c-0.6-2.98-1.11-5.99-1.52-9.03
	c-0.07-0.55-0.15-1.09-0.22-1.64c-0.09-0.71-0.17-1.42-0.24-2.13c-0.08-0.7-0.15-1.4-0.21-2.1c-0.06-0.63-0.12-1.26-0.17-1.89
	c-0.07-0.89-0.13-1.78-0.19-2.67c-0.03-0.46-0.06-0.92-0.09-1.39c-0.07-1.35-0.12-2.71-0.15-4.07c-0.02-0.66-0.02-1.32-0.03-1.98
	c-0.01-0.56-0.02-1.12-0.02-1.67c0-0.51,0.01-1.03,0.02-1.54c0.01-0.73,0.01-1.45,0.03-2.18c0-0.18,0.02-0.36,0.02-0.54
	c2-63.14,45.8-116.85,105.09-132.99c0.13-0.03,0.25-0.07,0.38-0.1c0.92-0.25,1.84-0.48,2.77-0.71c0.28-0.07,0.56-0.14,0.84-0.21
	c0.79-0.19,1.58-0.37,2.37-0.55c0.41-0.09,0.82-0.18,1.23-0.27c0.68-0.15,1.37-0.28,2.05-0.42c0.52-0.1,1.04-0.2,1.55-0.3
	c0.6-0.11,1.19-0.22,1.79-0.32c0.6-0.1,1.21-0.21,1.82-0.3c0.53-0.08,1.07-0.17,1.6-0.24c0.66-0.1,1.33-0.19,2-0.28
	c0.49-0.07,0.99-0.13,1.49-0.19c0.7-0.09,1.4-0.17,2.11-0.24c0.48-0.05,0.96-0.1,1.45-0.15c0.71-0.07,1.42-0.13,2.13-0.19
	c0.49-0.04,0.99-0.08,1.49-0.11c0.69-0.05,1.38-0.09,2.07-0.13c0.54-0.03,1.07-0.06,1.61-0.08c0.64-0.03,1.29-0.05,1.93-0.07
	c0.61-0.02,1.23-0.03,1.84-0.05c0.61-0.01,1.23-0.02,1.84-0.02c0.62,0,1.24,0,1.85,0c0.62,0,1.23,0.01,1.84,0.02
	c0.61,0.01,1.23,0.03,1.84,0.05c0.61,0.02,1.22,0.04,1.83,0.07c0.61,0.03,1.23,0.06,1.84,0.1c0.61,0.04,1.21,0.07,1.81,0.12
	c0.61,0.04,1.21,0.09,1.82,0.14c0.6,0.05,1.21,0.1,1.81,0.16c0.6,0.06,1.2,0.12,1.8,0.19c0.6,0.07,1.2,0.13,1.79,0.21
	c0.6,0.07,1.2,0.15,1.79,0.23c0.59,0.08,1.18,0.16,1.77,0.25c0.6,0.09,1.19,0.18,1.79,0.28c0.59,0.09,1.17,0.19,1.75,0.29
	c0.59,0.1,1.18,0.21,1.78,0.32c0.58,0.11,1.16,0.22,1.74,0.33c0.59,0.12,1.17,0.24,1.76,0.37c0.58,0.12,1.15,0.25,1.72,0.38
	c0.58,0.13,1.16,0.27,1.74,0.41c0.57,0.14,1.14,0.27,1.71,0.42c0.58,0.15,1.15,0.3,1.73,0.45c0.57,0.15,1.13,0.3,1.69,0.46
	c0.57,0.16,1.14,0.33,1.71,0.49c0.56,0.16,1.12,0.33,1.67,0.5c0.57,0.17,1.13,0.35,1.69,0.54c0.55,0.18,1.1,0.35,1.65,0.54
	c0.56,0.19,1.12,0.38,1.68,0.58c0.54,0.19,1.09,0.38,1.63,0.57c0.56,0.2,1.11,0.41,1.67,0.62c0.54,0.2,1.07,0.4,1.61,0.61
	c0.55,0.21,1.1,0.44,1.64,0.66c0.53,0.22,1.07,0.43,1.6,0.65c0.54,0.23,1.08,0.46,1.61,0.69c0.53,0.23,1.06,0.46,1.59,0.69
	c0.53,0.24,1.06,0.49,1.59,0.73c0.52,0.24,1.05,0.48,1.56,0.73c0.53,0.25,1.05,0.51,1.57,0.77c0.51,0.25,1.03,0.51,1.54,0.77
	c0.52,0.27,1.04,0.54,1.56,0.81c0.51,0.27,1.01,0.53,1.52,0.8c0.51,0.28,1.02,0.56,1.53,0.84c0.5,0.28,1,0.56,1.5,0.84
	c0.5,0.29,1,0.58,1.5,0.88c0.49,0.29,0.99,0.58,1.48,0.87c0.5,0.3,0.99,0.61,1.48,0.91c0.49,0.3,0.97,0.6,1.45,0.91
	c0.49,0.31,0.97,0.63,1.46,0.95c0.48,0.31,0.96,0.62,1.43,0.94c0.48,0.32,0.95,0.65,1.42,0.98c0.47,0.33,0.95,0.65,1.42,0.98
	c0.47,0.33,0.93,0.67,1.4,1.01c0.46,0.34,0.93,0.67,1.38,1.01c0.46,0.34,0.92,0.7,1.38,1.05c0.45,0.35,0.91,0.69,1.36,1.04
	c0.45,0.36,0.9,0.72,1.35,1.08c0.44,0.36,0.89,0.71,1.33,1.07c0.45,0.37,0.88,0.74,1.32,1.11c0.44,0.37,0.88,0.73,1.31,1.11
	c0.43,0.37,0.86,0.76,1.29,1.13c0.43,0.38,0.86,0.76,1.29,1.14c0.42,0.38,0.84,0.77,1.26,1.16c0.42,0.39,0.85,0.78,1.26,1.18
	c0.41,0.39,0.82,0.79,1.22,1.19c0.41,0.4,0.83,0.8,1.24,1.21c0.4,0.4,0.79,0.8,1.18,1.21c0.41,0.42,0.82,0.83,1.22,1.25
	c0.39,0.41,0.77,0.82,1.15,1.23c0.4,0.43,0.8,0.85,1.19,1.28c0.38,0.42,0.75,0.85,1.13,1.27c0.39,0.43,0.77,0.86,1.15,1.3
	c0.37,0.43,0.74,0.87,1.1,1.3c0.37,0.44,0.75,0.88,1.12,1.32c0.36,0.44,0.71,0.88,1.07,1.32c0.36,0.45,0.73,0.9,1.09,1.36
	c0.35,0.44,0.69,0.89,1.03,1.33c0.36,0.46,0.72,0.93,1.07,1.39c0.33,0.44,0.66,0.89,0.98,1.34c0.35,0.48,0.71,0.96,1.05,1.44
	c0.31,0.44,0.62,0.89,0.93,1.33c0.35,0.5,0.7,1,1.04,1.5c0.3,0.44,0.59,0.89,0.88,1.34c0.34,0.51,0.68,1.02,1.01,1.54
	c0.28,0.44,0.55,0.88,0.83,1.32c0.34,0.54,0.68,1.07,1.01,1.61c0.24,0.39,0.47,0.79,0.71,1.19c0.35,0.59,0.71,1.18,1.06,1.78
	c0.16,0.28,0.32,0.57,0.48,0.86c1.39,2.46,2.71,4.96,3.96,7.5c0.13,0.27,0.27,0.53,0.4,0.8c0.3,0.63,0.59,1.26,0.88,1.89
	c0.2,0.42,0.4,0.84,0.59,1.26c0.28,0.61,0.54,1.22,0.8,1.84c0.2,0.45,0.4,0.9,0.59,1.35c0.26,0.61,0.5,1.22,0.75,1.83
	c0.19,0.47,0.39,0.93,0.57,1.4c0.23,0.59,0.45,1.19,0.68,1.78c0.19,0.5,0.38,0.99,0.57,1.49c0.22,0.59,0.42,1.18,0.63,1.78
	c0.18,0.51,0.36,1.02,0.54,1.53c0.2,0.6,0.39,1.2,0.58,1.79c0.17,0.52,0.34,1.03,0.5,1.55c0.18,0.59,0.36,1.19,0.53,1.79
	c0.16,0.53,0.32,1.06,0.47,1.59c0.17,0.61,0.33,1.22,0.49,1.82c0.14,0.53,0.29,1.05,0.43,1.58c0.16,0.61,0.3,1.23,0.45,1.84
	c0.13,0.53,0.26,1.07,0.39,1.6c0.14,0.61,0.27,1.22,0.4,1.83c0.12,0.55,0.24,1.1,0.36,1.66c0.12,0.61,0.24,1.23,0.35,1.84
	c0.11,0.55,0.22,1.11,0.31,1.66c0.11,0.62,0.21,1.25,0.31,1.88c0.09,0.55,0.19,1.1,0.27,1.66c0.1,0.63,0.18,1.26,0.26,1.89
	c0.08,0.56,0.16,1.12,0.23,1.68c0.08,0.63,0.15,1.26,0.22,1.89c0.06,0.57,0.13,1.14,0.19,1.71c0.06,0.63,0.11,1.26,0.17,1.89
	c0.05,0.57,0.1,1.15,0.15,1.72c0.05,0.63,0.08,1.27,0.12,1.91c0.04,0.58,0.07,1.16,0.1,1.74c0.03,0.64,0.05,1.27,0.07,1.91
	c0.02,0.58,0.04,1.17,0.06,1.76c0.03,1.11,0.04,2.22,0.04,3.33c0,12.19-1.54,24.02-4.43,35.32l-97.28-94.59l-54.11,81.31
	l-18.44-15.77L110.9,264.75L160.12,189.5z"/>
</svg>
