<?xml version="1.0" encoding="utf-8"?>
<!-- Generator: Adobe Illustrator 25.2.3, SVG Export Plug-In . SVG Version: 6.00 Build 0)  -->
<svg version="1.1" id="Layer_1" xmlns="http://www.w3.org/2000/svg" xmlns:xlink="http://www.w3.org/1999/xlink" x="0px" y="0px"
	 viewBox="0 0 1047.9 203.83" style="enable-background:new 0 0 1047.9 203.83;" xml:space="preserve">
<style type="text/css">
	.st0{fill:#FFFFFF;}
</style>
<path id="STORAGENERGY" class="st0" d="M258.89,134.87c1.78,0,3.54-0.24,5.28-0.72c1.73-0.48,3.28-1.2,4.63-2.16
	c1.36-0.96,2.45-2.14,3.27-3.53c0.82-1.39,1.24-2.99,1.24-4.81c0-2.2-0.57-4.14-1.7-5.84c-1.13-1.7-2.62-3.27-4.45-4.71
	c-1.84-1.44-3.94-2.79-6.31-4.04c-2.37-1.25-4.78-2.51-7.23-3.78c-2.45-1.27-4.87-2.6-7.23-3.99c-2.37-1.39-4.47-2.93-6.31-4.63
	c-1.84-1.7-3.32-3.6-4.45-5.72c-1.13-2.11-1.7-4.54-1.7-7.29c0-2.75,0.51-5.29,1.54-7.65c1.03-2.35,2.54-4.38,4.53-6.1
	c1.99-1.72,4.44-3.06,7.34-4.04c2.9-0.98,6.24-1.47,10.01-1.47c6.8,0,12.16,1.42,16.09,4.27c3.93,2.85,6.77,6.97,8.52,12.36
	l-6.18,2.83c-0.72-2.2-1.64-4.2-2.75-6.02c-1.12-1.82-2.45-3.38-4.02-4.69c-1.56-1.3-3.36-2.31-5.38-3.01
	c-2.03-0.7-4.31-1.06-6.85-1.06c-2.27,0-4.25,0.32-5.95,0.95s-3.11,1.46-4.22,2.47c-1.12,1.01-1.96,2.16-2.52,3.45
	c-0.57,1.29-0.85,2.6-0.85,3.94c0,1.89,0.58,3.61,1.75,5.17c1.17,1.56,2.69,3.05,4.58,4.45c1.89,1.41,4.05,2.75,6.49,4.04
	c2.44,1.29,4.92,2.6,7.44,3.94c2.52,1.34,5,2.73,7.44,4.17c2.44,1.44,4.6,3.02,6.49,4.74c1.89,1.72,3.42,3.6,4.58,5.64
	c1.17,2.04,1.75,4.32,1.75,6.82c0,2.85-0.54,5.52-1.62,8.01c-1.08,2.49-2.7,4.67-4.87,6.54c-2.16,1.87-4.85,3.35-8.06,4.43
	c-3.21,1.08-6.94,1.62-11.2,1.62c-3.43,0-6.5-0.38-9.22-1.13c-2.71-0.75-5.11-1.85-7.18-3.29c-2.08-1.44-3.85-3.21-5.33-5.3
	c-1.48-2.09-2.69-4.46-3.66-7.11l6.49-2.68c0.75,2.33,1.77,4.43,3.04,6.28c1.27,1.85,2.75,3.42,4.45,4.71
	c1.7,1.29,3.59,2.27,5.66,2.93C254.35,134.53,256.56,134.87,258.89,134.87z M349.13,66.03v4.63h-25.95v67.09h-12.05V70.66h-26v-4.63
	H349.13z M391.38,139.45c-3.71,0-7.26-0.46-10.66-1.36c-3.4-0.91-6.56-2.19-9.47-3.84c-2.92-1.65-5.58-3.63-7.98-5.95
	c-2.4-2.32-4.45-4.88-6.13-7.7c-1.68-2.81-2.99-5.83-3.91-9.06c-0.93-3.23-1.39-6.59-1.39-10.09c0-3.43,0.46-6.73,1.39-9.89
	c0.93-3.16,2.23-6.11,3.91-8.86c1.68-2.75,3.72-5.24,6.13-7.49c2.4-2.25,5.06-4.18,7.98-5.79c2.92-1.61,6.08-2.86,9.47-3.73
	c3.4-0.88,6.95-1.31,10.66-1.31s7.26,0.44,10.66,1.31c3.4,0.87,6.56,2.12,9.47,3.73c2.92,1.61,5.58,3.54,7.98,5.79
	c2.4,2.25,4.45,4.75,6.13,7.49c1.68,2.75,2.99,5.7,3.91,8.86c0.93,3.16,1.39,6.45,1.39,9.89c0,3.47-0.46,6.82-1.39,10.07
	c-0.93,3.24-2.23,6.27-3.91,9.09c-1.68,2.82-3.72,5.38-6.13,7.7c-2.4,2.32-5.06,4.3-7.98,5.95c-2.92,1.65-6.08,2.93-9.47,3.84
	C398.63,138.99,395.08,139.45,391.38,139.45z M391.38,135.85c4.08,0,7.71-0.86,10.86-2.57c3.16-1.72,5.81-4.1,7.95-7.16
	c2.14-3.05,3.78-6.68,4.89-10.89c1.12-4.2,1.67-8.8,1.67-13.77c0-4.91-0.56-9.41-1.67-13.52c-1.12-4.1-2.75-7.64-4.89-10.61
	c-2.15-2.97-4.8-5.28-7.95-6.93c-3.16-1.65-6.78-2.47-10.86-2.47c-4.19,0-7.87,0.82-11.04,2.47c-3.18,1.65-5.83,3.96-7.95,6.93
	c-2.13,2.97-3.73,6.5-4.81,10.61c-1.08,4.1-1.62,8.61-1.62,13.52c0,4.98,0.54,9.57,1.62,13.77c1.08,4.2,2.69,7.83,4.81,10.89
	c2.13,3.06,4.78,5.44,7.95,7.16C383.51,134.99,387.19,135.85,391.38,135.85z M440.57,66.03h24.82c4.32,0,8.11,0.46,11.35,1.39
	c3.24,0.93,5.95,2.22,8.11,3.89c2.16,1.66,3.79,3.64,4.89,5.92c1.1,2.28,1.65,4.78,1.65,7.49c0,2.23-0.42,4.32-1.26,6.26
	c-0.84,1.94-2.03,3.69-3.58,5.25c-1.54,1.56-3.4,2.92-5.56,4.07s-4.55,2.03-7.16,2.65l26.1,34.8h-13.95l-24.92-33.72h-8.44v33.72
	h-12.05V66.03z M452.62,100.42h6.95c2.71,0,5.21-0.36,7.49-1.08c2.28-0.72,4.26-1.74,5.95-3.06c1.68-1.32,2.99-2.93,3.94-4.81
	c0.94-1.89,1.42-4,1.42-6.33c0-2.13-0.38-4.09-1.13-5.9c-0.76-1.8-1.8-3.35-3.14-4.63c-1.34-1.29-2.93-2.29-4.79-3.01
	c-1.85-0.72-3.88-1.08-6.08-1.08h-10.61V100.42z M532.46,64.38l33.77,73.37h-12.25l-10.97-23.94h-30.74l-11.33,23.94h-6.02
	l34.55-73.37H532.46z M514.39,109.18h26.41l-13.03-28.37L514.39,109.18z M611.05,69.53c-4.32,0-8.31,0.77-11.94,2.32
	c-3.64,1.54-6.79,3.74-9.45,6.59c-2.66,2.85-4.73,6.3-6.2,10.35c-1.48,4.05-2.21,8.6-2.21,13.64c0,5.05,0.81,9.59,2.42,13.64
	c1.61,4.05,3.81,7.5,6.59,10.35c2.78,2.85,6.06,5.05,9.83,6.59c3.77,1.54,7.83,2.32,12.15,2.32c3.16,0,6.01-0.43,8.55-1.29
	c2.54-0.86,4.8-2.08,6.8-3.66v-25.18h-13.54v-4.27h25.59v31.56c-2.09,1.13-4.2,2.13-6.33,2.99c-2.13,0.86-4.42,1.59-6.87,2.19
	c-2.45,0.6-5.17,1.05-8.13,1.34c-2.97,0.29-6.32,0.44-10.07,0.44c-3.95,0-7.72-0.45-11.3-1.34c-3.59-0.89-6.9-2.14-9.94-3.76
	c-3.04-1.61-5.78-3.55-8.24-5.82c-2.45-2.27-4.54-4.77-6.26-7.52c-1.72-2.75-3.04-5.69-3.96-8.83c-0.93-3.14-1.39-6.39-1.39-9.76
	c0-3.36,0.45-6.64,1.34-9.83c0.89-3.19,2.16-6.2,3.81-9.01c1.65-2.81,3.66-5.4,6.05-7.75c2.39-2.35,5.07-4.38,8.06-6.08
	c2.99-1.7,6.24-3.02,9.76-3.96c3.52-0.94,7.27-1.42,11.25-1.42c3.81,0,7.32,0.51,10.53,1.54c3.21,1.03,6.14,2.39,8.8,4.09
	c2.66,1.7,5.02,3.66,7.08,5.9c2.06,2.23,3.83,4.55,5.3,6.95l-5.2,3.5c-3.02-5.8-6.38-10.06-10.09-12.77
	C620.12,70.89,615.86,69.53,611.05,69.53z M700.93,66.03v4.63h-37.79V96.3h25.28v4.63h-25.28v32.18h37.79v4.63h-49.84V66.03H700.93z
	 M709.04,66.03h6.74l47.01,52.41h0.46V66.03h5.3v73.42h-2.78l-50.92-58.33h-0.41v56.63h-5.41V66.03z M831.15,66.03v4.63h-37.79V96.3
	h25.28v4.63h-25.28v32.18h37.79v4.63h-49.84V66.03H831.15z M839.26,66.03h24.82c4.32,0,8.11,0.46,11.35,1.39s5.95,2.22,8.11,3.89
	c2.16,1.66,3.79,3.64,4.89,5.92c1.1,2.28,1.65,4.78,1.65,7.49c0,2.23-0.42,4.32-1.26,6.26c-0.84,1.94-2.03,3.69-3.58,5.25
	c-1.54,1.56-3.4,2.92-5.56,4.07c-2.16,1.15-4.55,2.03-7.16,2.65l26.1,34.8h-13.95l-24.92-33.72h-8.44v33.72h-12.05V66.03z
	 M851.31,100.42h6.95c2.71,0,5.21-0.36,7.49-1.08c2.28-0.72,4.26-1.74,5.95-3.06c1.68-1.32,2.99-2.93,3.94-4.81
	c0.94-1.89,1.42-4,1.42-6.33c0-2.13-0.38-4.09-1.13-5.9c-0.76-1.8-1.8-3.35-3.14-4.63c-1.34-1.29-2.93-2.29-4.79-3.01
	c-1.85-0.72-3.88-1.08-6.08-1.08h-10.61V100.42z M943.19,69.53c-4.32,0-8.31,0.77-11.94,2.32c-3.64,1.54-6.79,3.74-9.45,6.59
	c-2.66,2.85-4.73,6.3-6.2,10.35c-1.48,4.05-2.21,8.6-2.21,13.64c0,5.05,0.81,9.59,2.42,13.64c1.61,4.05,3.81,7.5,6.59,10.35
	c2.78,2.85,6.06,5.05,9.83,6.59c3.78,1.54,7.83,2.32,12.15,2.32c3.16,0,6.01-0.43,8.55-1.29c2.54-0.86,4.8-2.08,6.8-3.66v-25.18
	h-13.54v-4.27h25.59v31.56c-2.09,1.13-4.2,2.13-6.33,2.99c-2.13,0.86-4.42,1.59-6.87,2.19c-2.45,0.6-5.17,1.05-8.13,1.34
	c-2.97,0.29-6.32,0.44-10.07,0.44c-3.95,0-7.72-0.45-11.3-1.34c-3.59-0.89-6.9-2.14-9.94-3.76c-3.04-1.61-5.78-3.55-8.24-5.82
	c-2.45-2.27-4.54-4.77-6.26-7.52c-1.72-2.75-3.04-5.69-3.96-8.83c-0.93-3.14-1.39-6.39-1.39-9.76c0-3.36,0.45-6.64,1.34-9.83
	c0.89-3.19,2.16-6.2,3.81-9.01c1.65-2.81,3.66-5.4,6.05-7.75c2.39-2.35,5.07-4.38,8.06-6.08c2.99-1.7,6.24-3.02,9.76-3.96
	c3.52-0.94,7.27-1.42,11.25-1.42c3.81,0,7.32,0.51,10.53,1.54c3.21,1.03,6.14,2.39,8.8,4.09c2.66,1.7,5.02,3.66,7.08,5.9
	c2.06,2.23,3.83,4.55,5.3,6.95l-5.2,3.5c-3.02-5.8-6.38-10.06-10.09-12.77C952.25,70.89,948,69.53,943.19,69.53z M986.73,66.03
	l24.87,36.35l24.76-36.35h6.54l-27.8,40.73v30.99h-12.05v-29.86l-28.68-41.86H986.73z"/>
<path id="MARK" class="st0" d="M198.79,104.86c0-0.07,0-0.14,0-0.2c0.02-0.87,0.04-1.74,0.04-2.61c0-0.04,0-0.09,0-0.13
	c0-0.31-0.01-0.62-0.01-0.93c-0.01-0.53-0.01-1.06-0.02-1.59c-0.01-0.29-0.02-0.57-0.03-0.85c-0.02-0.56-0.04-1.12-0.07-1.68
	c-0.01-0.21-0.03-0.41-0.04-0.61c-0.04-0.64-0.08-1.28-0.12-1.92c-0.01-0.12-0.02-0.24-0.03-0.36c-0.06-0.72-0.12-1.45-0.2-2.17
	c0-0.04-0.01-0.08-0.01-0.12c-4.54-43.27-37.55-78.05-79.95-85.3c-0.03-0.01-0.07-0.01-0.1-0.02c-0.75-0.13-1.5-0.25-2.25-0.36
	c-0.14-0.02-0.28-0.04-0.42-0.06c-0.65-0.09-1.3-0.18-1.95-0.26c-0.23-0.03-0.46-0.05-0.69-0.08c-0.57-0.06-1.14-0.13-1.71-0.18
	c-0.3-0.03-0.6-0.05-0.9-0.08c-0.51-0.04-1.02-0.09-1.53-0.12c-0.35-0.02-0.7-0.05-1.05-0.07c-0.47-0.03-0.93-0.05-1.4-0.07
	c-0.39-0.02-0.78-0.03-1.17-0.04c-0.44-0.01-0.88-0.03-1.32-0.04c-0.41-0.01-0.82-0.01-1.23-0.02c-0.23,0-0.47-0.01-0.7-0.01
	c-0.2,0-0.4,0.01-0.6,0.01c-0.41,0-0.82,0.01-1.23,0.02c-0.44,0.01-0.88,0.02-1.31,0.03c-0.21,0.01-0.41,0.01-0.62,0.02
	c-0.22,0.01-0.43,0.02-0.65,0.03c-0.38,0.02-0.76,0.04-1.14,0.06c-0.43,0.02-0.86,0.05-1.28,0.08C94.7,5.27,94.3,5.3,93.91,5.33
	c-0.39,0.03-0.78,0.07-1.16,0.1c-0.44,0.04-0.89,0.09-1.33,0.13c-0.31,0.03-0.62,0.07-0.93,0.11c-0.52,0.06-1.05,0.13-1.57,0.2
	c-0.2,0.03-0.41,0.06-0.61,0.09c-0.63,0.09-1.27,0.18-1.9,0.28c-0.06,0.01-0.12,0.02-0.17,0.03c-42.46,6.91-75.66,41.4-80.6,84.49
	c-0.01,0.12-0.03,0.25-0.04,0.37c-0.07,0.59-0.13,1.19-0.18,1.78c-0.02,0.26-0.05,0.53-0.07,0.79c-0.04,0.48-0.08,0.97-0.11,1.45
	c-0.03,0.37-0.05,0.73-0.07,1.1c-0.02,0.41-0.05,0.82-0.06,1.23c-0.02,0.43-0.04,0.86-0.05,1.28c-0.01,0.37-0.02,0.75-0.03,1.13
	c0,0.19-0.01,0.37-0.02,0.56c0,0.14,0,0.28,0,0.41c0,0.35-0.01,0.7-0.01,1.05c0,0.89,0.01,1.78,0.04,2.66
	c0,0.13,0.01,0.26,0.01,0.39c0.04,1.18,0.1,2.36,0.17,3.53c0.01,0.19,0.02,0.38,0.04,0.57c0.09,1.21,0.2,2.41,0.33,3.6
	c0.03,0.26,0.06,0.51,0.09,0.77c0.14,1.19,0.3,2.38,0.49,3.56c0.03,0.21,0.07,0.41,0.1,0.61c0.19,1.18,0.4,2.35,0.64,3.51
	c0.02,0.09,0.03,0.17,0.05,0.26c0.25,1.22,0.53,2.42,0.82,3.62c0.05,0.21,0.1,0.43,0.16,0.64c0.29,1.17,0.61,2.33,0.95,3.49
	c0.06,0.21,0.13,0.43,0.19,0.64c0.35,1.18,0.72,2.35,1.12,3.51c0.02,0.05,0.03,0.09,0.04,0.14l1.58,4.59l0.09-0.12
	c3.01,7.53,6.95,14.6,11.66,21.06l0,0.01c0.09,0.13,0.19,0.25,0.28,0.37c0.37,0.5,0.74,1,1.12,1.49c0.17,0.22,0.33,0.44,0.5,0.65
	c1.1,1.41,2.24,2.79,3.41,4.13c0.12,0.14,0.24,0.27,0.36,0.4c0.49,0.55,0.99,1.1,1.49,1.65c0.13,0.14,0.25,0.27,0.38,0.4
	c0.55,0.59,1.11,1.18,1.68,1.75c0.05,0.05,0.1,0.1,0.15,0.16c15.66,15.88,36.77,26.38,60.29,28.47c0.04,0,0.07,0.01,0.11,0.01
	c0.84,0.07,1.67,0.14,2.52,0.19c0.16,0.01,0.32,0.02,0.49,0.03c0.74,0.04,1.48,0.07,2.22,0.1c0.21,0.01,0.42,0.02,0.62,0.02
	c0.91,0.03,1.81,0.04,2.72,0.04c0.01,0,0.02,0,0.03,0c0,0,0.01,0,0.01,0c1.16,0,2.32-0.03,3.47-0.07c0.29-0.01,0.58-0.02,0.87-0.03
	c1.09-0.05,2.18-0.11,3.26-0.19c0.32-0.02,0.65-0.06,0.97-0.09c0.78-0.07,1.56-0.15,2.34-0.23c0.44-0.05,0.88-0.1,1.32-0.15
	c0.9-0.11,1.79-0.24,2.69-0.38c0.6-0.09,1.21-0.2,1.81-0.3c0.38-0.07,0.75-0.13,1.13-0.2c1.27-0.24,2.53-0.5,3.79-0.78
	c0.1-0.02,0.21-0.05,0.31-0.07c6.15-1.42,12.13-3.44,17.88-6.04c0.02-0.01,0.05-0.02,0.07-0.03c2.02-0.92,4.01-1.9,5.97-2.96
	c0.41-0.22,0.82-0.45,1.23-0.68c0.69-0.39,1.38-0.78,2.07-1.19c0.61-0.36,1.22-0.73,1.82-1.1c0.33-0.21,0.66-0.41,0.99-0.62
	c0.89-0.56,1.76-1.14,2.63-1.74c0.22-0.15,0.44-0.31,0.66-0.46c0.94-0.65,1.87-1.32,2.79-2.01c0.02-0.01,0.03-0.02,0.05-0.04
	c0.05-0.04,0.1-0.08,0.15-0.12c0.89-0.67,1.77-1.36,2.63-2.06c0.11-0.09,0.23-0.18,0.34-0.28c0.94-0.77,1.86-1.55,2.78-2.36
	c0.01-0.01,0.03-0.03,0.04-0.04c12.25-10.81,21.75-24.66,27.31-40.38c0.06-0.16,0.11-0.31,0.16-0.47c0.38-1.08,0.74-2.17,1.08-3.27
	c0.01-0.04,0.03-0.07,0.04-0.11l0.51-1.67l-0.01-0.01C197.26,121.1,198.54,113.11,198.79,104.86L198.79,104.86z M105.13,124.09
	l14.21,12.71l8.1-66.92l61.82,60.7c-11.06,33.63-41.04,58.75-77.29,62.71c-0.56,0.06-1.13,0.12-1.69,0.17
	c-0.4,0.04-0.81,0.08-1.22,0.11c-0.99,0.08-1.99,0.13-3,0.18c-0.29,0.01-0.58,0.02-0.87,0.03c-1.09,0.04-2.17,0.06-3.27,0.06
	c0,0-0.01,0-0.01,0c-0.01,0-0.02,0-0.03,0c-0.87,0-1.74-0.01-2.61-0.04c-0.22-0.01-0.45-0.02-0.67-0.03
	c-0.68-0.02-1.36-0.05-2.04-0.09c-0.2-0.01-0.4-0.03-0.6-0.04c-0.75-0.05-1.5-0.1-2.25-0.17c-0.1-0.01-0.2-0.02-0.3-0.03
	c-12.75-1.19-25.01-5.03-36.03-11.13c-0.2-0.11-0.41-0.23-0.61-0.34c-0.45-0.26-0.91-0.52-1.36-0.78c-0.35-0.21-0.7-0.41-1.05-0.62
	c-0.15-0.09-0.3-0.19-0.45-0.28c-17.65-10.85-31.37-27.48-38.5-47.24l48.12-66.36l27.1,22.04l33.19-49.69l38.25,35.56l3.07-3.95
	L122.6,31.73L89.49,81.3l-26.9-21.88L13.5,127.07c-0.41-1.45-0.79-2.92-1.13-4.39c0-0.02-0.01-0.03-0.01-0.05
	c-0.16-0.71-0.32-1.42-0.47-2.14c-0.02-0.09-0.04-0.18-0.05-0.27c-0.39-1.92-0.72-3.87-0.98-5.83c-0.05-0.35-0.1-0.7-0.14-1.06
	c-0.06-0.46-0.11-0.92-0.16-1.37c-0.05-0.45-0.1-0.9-0.14-1.36c-0.04-0.41-0.08-0.81-0.11-1.22c-0.05-0.57-0.08-1.15-0.12-1.73
	c-0.02-0.3-0.04-0.6-0.06-0.89c-0.05-0.87-0.08-1.75-0.1-2.63c-0.01-0.43-0.01-0.85-0.02-1.28c0-0.36-0.01-0.72-0.01-1.08
	c0-0.33,0.01-0.66,0.01-0.99c0.01-0.47,0.01-0.94,0.02-1.41c0-0.12,0.01-0.23,0.01-0.35c1.29-40.75,29.56-75.42,67.83-85.84
	c0.08-0.02,0.16-0.04,0.24-0.07c0.59-0.16,1.19-0.31,1.79-0.46c0.18-0.04,0.36-0.09,0.54-0.13c0.51-0.12,1.02-0.24,1.53-0.35
	c0.27-0.06,0.53-0.12,0.8-0.17c0.44-0.09,0.88-0.18,1.32-0.27c0.33-0.07,0.67-0.13,1-0.19c0.38-0.07,0.77-0.14,1.16-0.21
	c0.39-0.07,0.78-0.13,1.17-0.19c0.34-0.05,0.69-0.11,1.03-0.16c0.43-0.06,0.86-0.12,1.29-0.18c0.32-0.04,0.64-0.08,0.96-0.12
	c0.45-0.06,0.9-0.11,1.36-0.16c0.31-0.03,0.62-0.06,0.93-0.09c0.46-0.04,0.92-0.09,1.38-0.12c0.32-0.03,0.64-0.05,0.96-0.07
	c0.45-0.03,0.89-0.06,1.34-0.09c0.35-0.02,0.69-0.04,1.04-0.05c0.41-0.02,0.83-0.03,1.25-0.05c0.4-0.01,0.79-0.02,1.19-0.03
	c0.4-0.01,0.79-0.01,1.19-0.02c0.4,0,0.8,0,1.2,0c0.4,0,0.79,0.01,1.19,0.02c0.4,0.01,0.79,0.02,1.19,0.03
	c0.39,0.01,0.79,0.03,1.18,0.04c0.4,0.02,0.79,0.04,1.19,0.06c0.39,0.02,0.78,0.05,1.17,0.07c0.39,0.03,0.78,0.06,1.17,0.09
	c0.39,0.03,0.78,0.07,1.17,0.1c0.39,0.04,0.78,0.08,1.16,0.12c0.39,0.04,0.77,0.09,1.16,0.13c0.39,0.05,0.77,0.1,1.16,0.15
	c0.38,0.05,0.76,0.1,1.15,0.16c0.38,0.06,0.77,0.12,1.15,0.18c0.38,0.06,0.76,0.12,1.13,0.19c0.38,0.07,0.76,0.14,1.15,0.21
	c0.37,0.07,0.75,0.14,1.12,0.22c0.38,0.08,0.76,0.16,1.14,0.24c0.37,0.08,0.74,0.16,1.11,0.24c0.38,0.09,0.75,0.17,1.12,0.26
	c0.37,0.09,0.74,0.18,1.1,0.27c0.37,0.09,0.74,0.19,1.11,0.29c0.36,0.1,0.73,0.19,1.09,0.3c0.37,0.1,0.74,0.21,1.1,0.32
	c0.36,0.11,0.72,0.21,1.08,0.32c0.37,0.11,0.73,0.23,1.09,0.35c0.36,0.11,0.71,0.23,1.07,0.35c0.36,0.12,0.73,0.25,1.09,0.37
	c0.35,0.12,0.7,0.24,1.05,0.37c0.36,0.13,0.72,0.27,1.08,0.4c0.35,0.13,0.69,0.26,1.04,0.4c0.35,0.14,0.71,0.28,1.06,0.42
	c0.34,0.14,0.69,0.28,1.03,0.42c0.35,0.15,0.69,0.3,1.04,0.45c0.34,0.15,0.68,0.3,1.02,0.45c0.34,0.15,0.69,0.31,1.03,0.47
	c0.34,0.16,0.67,0.31,1.01,0.47c0.34,0.16,0.68,0.33,1.01,0.5c0.33,0.16,0.66,0.33,0.99,0.49c0.34,0.17,0.67,0.35,1,0.52
	c0.33,0.17,0.65,0.34,0.98,0.52c0.33,0.18,0.66,0.36,0.98,0.54c0.32,0.18,0.65,0.36,0.97,0.54c0.33,0.19,0.65,0.38,0.97,0.57
	c0.32,0.19,0.64,0.37,0.95,0.56c0.32,0.19,0.64,0.39,0.96,0.59c0.31,0.19,0.63,0.39,0.94,0.59c0.32,0.2,0.63,0.41,0.94,0.61
	c0.31,0.2,0.62,0.4,0.92,0.61c0.31,0.21,0.61,0.42,0.92,0.63c0.31,0.21,0.61,0.42,0.91,0.63c0.3,0.21,0.6,0.43,0.9,0.65
	c0.3,0.22,0.6,0.43,0.89,0.65c0.3,0.22,0.59,0.45,0.89,0.68c0.29,0.22,0.59,0.45,0.88,0.67c0.29,0.23,0.58,0.46,0.87,0.7
	c0.29,0.23,0.57,0.46,0.86,0.69c0.29,0.24,0.57,0.48,0.86,0.72c0.28,0.24,0.57,0.47,0.84,0.71c0.28,0.24,0.55,0.49,0.83,0.73
	c0.28,0.25,0.56,0.49,0.83,0.74c0.27,0.25,0.54,0.5,0.81,0.75c0.27,0.25,0.55,0.5,0.82,0.76c0.27,0.25,0.53,0.51,0.79,0.77
	c0.27,0.26,0.54,0.52,0.8,0.78c0.26,0.26,0.51,0.52,0.76,0.78c0.26,0.27,0.53,0.54,0.79,0.81c0.25,0.26,0.5,0.53,0.74,0.79
	c0.26,0.27,0.52,0.55,0.77,0.83c0.25,0.27,0.49,0.55,0.73,0.82c0.25,0.28,0.5,0.56,0.74,0.84c0.24,0.28,0.48,0.56,0.71,0.84
	c0.24,0.28,0.48,0.57,0.72,0.85c0.23,0.28,0.46,0.57,0.69,0.85c0.24,0.29,0.47,0.58,0.71,0.88c0.22,0.28,0.44,0.57,0.66,0.86
	c0.23,0.3,0.46,0.6,0.69,0.9c0.21,0.29,0.42,0.58,0.63,0.87c0.23,0.31,0.46,0.62,0.68,0.93c0.2,0.28,0.4,0.57,0.6,0.86
	c0.22,0.32,0.45,0.64,0.67,0.97c0.19,0.29,0.38,0.58,0.57,0.86c0.22,0.33,0.44,0.66,0.65,0.99c0.18,0.28,0.36,0.57,0.53,0.85
	c0.22,0.35,0.44,0.69,0.65,1.04c0.15,0.25,0.3,0.51,0.46,0.77c0.23,0.38,0.46,0.76,0.68,1.15c0.11,0.18,0.21,0.37,0.31,0.56
	c0.9,1.59,1.75,3.2,2.56,4.84c0.08,0.17,0.17,0.34,0.26,0.52c0.2,0.4,0.38,0.81,0.57,1.22c0.13,0.27,0.26,0.54,0.38,0.82
	c0.18,0.39,0.35,0.79,0.52,1.19c0.13,0.29,0.26,0.58,0.38,0.87c0.17,0.39,0.32,0.79,0.48,1.18c0.12,0.3,0.25,0.6,0.37,0.9
	c0.15,0.38,0.29,0.77,0.44,1.15c0.12,0.32,0.25,0.64,0.36,0.96c0.14,0.38,0.27,0.76,0.4,1.15c0.12,0.33,0.23,0.66,0.35,0.99
	c0.13,0.38,0.25,0.77,0.38,1.16c0.11,0.33,0.22,0.66,0.32,1c0.12,0.38,0.23,0.77,0.34,1.16c0.1,0.34,0.21,0.68,0.3,1.02
	c0.11,0.39,0.21,0.78,0.32,1.18c0.09,0.34,0.19,0.68,0.27,1.02c0.1,0.4,0.19,0.79,0.29,1.19c0.08,0.34,0.17,0.69,0.25,1.04
	c0.09,0.39,0.17,0.79,0.26,1.18c0.08,0.36,0.16,0.71,0.23,1.07c0.08,0.39,0.15,0.79,0.23,1.19c0.07,0.36,0.14,0.71,0.2,1.07
	c0.07,0.4,0.14,0.81,0.2,1.21c0.06,0.36,0.12,0.71,0.17,1.07c0.06,0.4,0.11,0.81,0.17,1.22c0.05,0.36,0.1,0.72,0.15,1.08
	c0.05,0.4,0.09,0.81,0.14,1.22c0.04,0.37,0.09,0.73,0.12,1.1c0.04,0.41,0.07,0.82,0.11,1.22c0.03,0.37,0.07,0.74,0.09,1.11
	c0.03,0.41,0.05,0.82,0.08,1.23c0.02,0.37,0.05,0.75,0.07,1.12c0.02,0.41,0.03,0.82,0.05,1.23c0.01,0.38,0.03,0.75,0.04,1.13
	c0.02,0.72,0.03,1.43,0.03,2.15c0,7.87-0.99,15.5-2.86,22.8l-62.79-61.06l-34.92,52.48l-11.9-10.18l-8,66.7L105.13,124.09z"/>
</svg>
